<?xml version="1.0" encoding="UTF-8"?>
<svg xmlns="http://www.w3.org/2000/svg" version="1.1" xmlns:xlink="http://www.w3.org/1999/xlink" viewBox="0 0 1280 1024">
  <defs>
    <style>
      .cls-1 {
        fill: #c2c2c2;
      }

      .cls-2 {
        stroke-width: 1.07px;
      }

      .cls-2, .cls-3, .cls-4, .cls-5, .cls-6 {
        fill: none;
      }

      .cls-2, .cls-7, .cls-8, .cls-9, .cls-4, .cls-10, .cls-6 {
        stroke: #000;
      }

      .cls-2, .cls-7, .cls-8, .cls-4, .cls-10, .cls-6 {
        stroke-miterlimit: 10;
      }

      .cls-7, .cls-10, .cls-6 {
        stroke-width: 8.14px;
      }

      .cls-8, .cls-9 {
        stroke-width: 7.46px;
      }

      .cls-8, .cls-9, .cls-10 {
        fill: #fff;
      }

      .cls-9, .cls-5 {
        stroke-linecap: round;
        stroke-linejoin: round;
      }

      .cls-4 {
        stroke-width: .27px;
      }

      .cls-11 {
        filter: url(#outer-glow-2);
      }

      .cls-11, .cls-12 {
        fill: #95efff;
      }

      .cls-5 {
        filter: url(#outer-glow-3);
        stroke: #95efff;
        stroke-width: 7.98px;
      }

      .cls-13 {
        fill: #b6b6b6;
      }

      .cls-12 {
        filter: url(#outer-glow-1);
      }
    </style>
    <filter id="outer-glow-1" x="561.59" y="513.59" width="81" height="81" filterUnits="userSpaceOnUse">
      <feOffset dx="0" dy="0"/>
      <feGaussianBlur result="blur" stdDeviation="7.14"/>
      <feFlood flood-color="#bdf9f7" flood-opacity="1"/>
      <feComposite in2="blur" operator="in"/>
      <feComposite in="SourceGraphic"/>
    </filter>
    <filter id="outer-glow-2" x="715.59" y="513.59" width="81" height="81" filterUnits="userSpaceOnUse">
      <feOffset dx="0" dy="0"/>
      <feGaussianBlur result="blur-2" stdDeviation="7.14"/>
      <feFlood flood-color="#bdf9f7" flood-opacity="1"/>
      <feComposite in2="blur-2" operator="in"/>
      <feComposite in="SourceGraphic"/>
    </filter>
    <filter id="outer-glow-3" x="631.59" y="556.59" width="91" height="70" filterUnits="userSpaceOnUse">
      <feOffset dx="0" dy="0"/>
      <feGaussianBlur result="blur-3" stdDeviation="7.14"/>
      <feFlood flood-color="#bdf9f7" flood-opacity="1"/>
      <feComposite in2="blur-3" operator="in"/>
      <feComposite in="SourceGraphic"/>
    </filter>
  </defs>
  <!-- Generator: Adobe Illustrator 28.7.1, SVG Export Plug-In . SVG Version: 1.2.0 Build 142)  -->
  <g>
    <g id="Layer_5">
      <circle class="cls-6" cx="601.85" cy="553.6" r="18.55"/>
      <circle class="cls-6" cx="755.99" cy="553.6" r="18.55"/>
      <path class="cls-6" d="M673.21,383.76c-78.74,0-146.13,44.03-173.66,106.38.23-.26.5-.56.8-.87.66-.7,1.46-1.54,2.38-2.5l.59-.59c.39-.4.81-.83,1.26-1.26.21-.23.44-.44.67-.67.74-.74,1.54-1.51,2.38-2.31.47-.46.97-.93,1.48-1.4,2.64-2.48,5.74-5.28,9.32-8.32.5-.43,1-.84,1.51-1.27.5-.43,1.01-.86,1.54-1.28.54-.46,1.1-.91,1.67-1.37,1.61-1.31,3.31-2.65,5.08-4.02.59-.46,1.2-.93,1.81-1.4,18.75-14.3,45.68-31.35,80.62-44.87,0,0,67.23-25.96,103.41-29.3,1.07-.1,2.1-.17,3.11-.24-14.1-3.08-28.83-4.71-43.99-4.71Z"/>
      <path class="cls-7" d="M751.54,454.04c-21.52-11.77-42.99-18.08-63.68-20.11-4.12-.41-8.21-.64-12.25-.71-39.22-.7-75.03,13.64-102.3,34.75-7.14,5.52-13.54,11.95-19.11,19.02-2.83,3.57-5.42,7.29-7.82,11.16-22.24,35.98-25.73,83.66-3.04,118.24,29.97,45.67,99.9,48.52,99.9,48.52,125.59,7.14,149.85-31.4,167.49-63.99,17.63-32.58,8.05-110.12-59.2-146.88ZM601.85,572.15c-10.25,0-18.55-8.31-18.55-18.55s8.31-18.55,18.55-18.55,18.55,8.31,18.55,18.55-8.31,18.55-18.55,18.55ZM755.99,572.15c-10.25,0-18.55-8.31-18.55-18.55s8.31-18.55,18.55-18.55,18.55,8.31,18.55,18.55-8.31,18.55-18.55,18.55Z"/>
      <circle class="cls-6" cx="601.85" cy="553.6" r="18.55"/>
      <circle class="cls-6" cx="755.99" cy="553.6" r="18.55"/>
      <path class="cls-6" d="M673.21,383.76c-78.74,0-146.13,44.03-173.66,106.38.23-.26.5-.56.8-.87.66-.7,1.46-1.54,2.38-2.5l.59-.59c.39-.4.81-.83,1.26-1.26.21-.23.44-.44.67-.67.74-.74,1.54-1.51,2.38-2.31.47-.46.97-.93,1.48-1.4,2.64-2.48,5.74-5.28,9.32-8.32.5-.43,1-.84,1.51-1.27.5-.43,1.01-.86,1.54-1.28.54-.46,1.1-.91,1.67-1.37,1.61-1.31,3.31-2.65,5.08-4.02.59-.46,1.2-.93,1.81-1.4,18.75-14.3,45.68-31.35,80.62-44.87,0,0,67.23-25.96,103.41-29.3,1.07-.1,2.1-.17,3.11-.24-14.1-3.08-28.83-4.71-43.99-4.71Z"/>
      <path class="cls-10" d="M733.85,392.87c-2.5-.77-5.02-1.5-7.56-2.18-3-.8-6.02-1.54-9.09-2.21-1.01.07-2.04.14-3.11.24-36.18,3.34-103.41,29.3-103.41,29.3-34.94,13.52-61.87,30.57-80.62,44.87-.61.47-1.23.94-1.81,1.4-1.77,1.37-3.47,2.71-5.08,4.02-.57.46-1.13.91-1.67,1.37-.53.43-1.04.86-1.54,1.28-.51.43-1.01.84-1.51,1.27-3.58,3.04-6.68,5.84-9.32,8.32-.51.47-1.01.94-1.48,1.4-.84.8-1.64,1.57-2.38,2.31-.23.23-.46.44-.67.67-.44.43-.87.86-1.26,1.26l-.59.59c-.93.96-1.73,1.8-2.38,2.5-.3.31-.57.61-.8.87-.39.84-.76,1.7-1.11,2.57-.33.76-.64,1.51-.94,2.27-.54,1.33-1.06,2.68-1.56,4.02-6.29,16.93-9.69,35.04-9.69,53.88s3.64,38.19,10.35,55.6c24.62,64.02,90.6,110.53,168.99,113.37,2.53.1,5.07.14,7.62.14,1.48,0,2.97-.01,4.45-.06,16.98-.34,33.41-2.75,48.98-6.96,56.86-15.3,102.38-54.42,122.42-104.58,7.19-17.95,11.1-37.32,11.1-57.51,0-74.2-52.82-137.25-126.32-160.01ZM810.73,600.92c-17.64,32.6-41.9,71.13-167.49,63.99,0,0-69.93-2.85-99.9-48.52-22.69-34.58-19.2-82.26,3.04-118.24,2.4-3.87,5-7.59,7.82-11.16,5.57-7.08,11.97-13.5,19.11-19.02,27.27-21.11,63.08-35.45,102.3-34.75,4.04.07,8.12.3,12.25.71,20.69,2.03,42.16,8.33,63.68,20.11,67.25,36.76,76.82,114.3,59.2,146.88Z"/>
    </g>
    <g id="Layer_2">
      <path class="cls-1" d="M855.89,566.44c.04,5.82-1.68,13.77-2.21,19.55-.73,7.91-2.07,16.13-4.61,24.4-18.87,43.1-65.56,89.28-122.42,104.58-14.76,3.45-31.04,5.85-48.98,6.96-1.48.04-2.97.06-4.45.06-81.72,0-148.7-49.51-174.11-115.6-5.94-20.51-12.1-39.93-9.99-58.51,10.97,45.08,40.76,112.1,108.54,129.04,106.34,26.59,181.26-7.51,217.94-45.03,17.65-18.07,31.87-44.81,40.3-65.46Z"/>
      <circle cx="601.85" cy="553.6" r="18.55"/>
      <circle cx="755.99" cy="553.6" r="18.55"/>
      <circle class="cls-12" cx="601.85" cy="553.6" r="18.55"/>
      <circle class="cls-11" cx="755.99" cy="553.6" r="18.55"/>
      <path class="cls-5" d="M657.51,582.14s0,21.06,21.41,18.58,16.84-18.58,16.84-18.58"/>
    </g>
    <g id="Layer_3">
      <g>
        <path class="cls-13" d="M662.31,295.79c-2.78,10.42,7.69,20.77,13.24,25.39-3.86,1.07-8.26,2.32-13.12,3.74-17.55-6.97-37.33-23.11-6.21-58.21,19.32-21.8,29.32-34.76,34.4-42.48-.87,7.23-2.31,16.5-4.36,21.15-3.66,8.28-20.23,36.39-23.95,50.41Z"/>
        <path class="cls-13" d="M477.42,417.94c-3.25,3.52-5.33,6.54-6.39,9.13-4.44-6.06-15.92-17.28-36.88-10.51-23.98,7.75-38.12,18.02-53.05,13.71,10.06-1.13,24.79-7.63,45.62-26.9,12.9-12.24,40.53-.99,50.69,14.56Z"/>
        <path class="cls-13" d="M527.67,380.43c-5.2,3.28-9.99,6.39-14.39,9.32-9.84-2.01-25.27-6.59-31.33-16.29-9.2-14.73-15.44-28.31-36.73-36.09-15.29-5.58-33.44-4.77-42.43-3.85,14.36-6.03,58.73-22.03,76.41,1.58,8.61,11.81,19.91,42.14,48.47,45.33Z"/>
        <path class="cls-13" d="M630.13,335.06c-14.58,4.88-30.48,10.65-46.25,17.18-6.55-18.23-.52-38.27,15.17-73.72,9.04-20.44,4.69-38.38-1.71-51.05.03.04.06.1.09.14.3.46.6.97.9,1.48.07.11.14.24.21.35.21.36.41.71.63,1.09,1.74,3.06,3.65,6.82,5.65,11.37.23.49.45,1.01.66,1.53.55,1.25,1.09,2.56,1.65,3.93.2.52.43,1.04.63,1.58,1.38,3.45,2.82,7.25,4.27,11.43,10.53,30.23,2.42,29.92.22,47.92-1.4,11.53,9.71,21.28,17.86,26.79Z"/>
        <path class="cls-9" d="M730.74,387.94l-6.92-12.86-31.4-58.36s-.24.06-.74.17c-1.96.49-7.72,1.96-16.13,4.28-3.85,1.07-8.26,2.33-13.12,3.74-3.88,1.14-8.03,2.38-12.43,3.75-6.21,1.91-12.89,4.05-19.88,6.39-14.57,4.88-30.47,10.65-46.24,17.17-3.77,1.56-7.52,3.15-11.26,4.82-10.39,4.58-20.59,9.49-30.13,14.71-5.07,2.74-9.96,5.59-14.59,8.52-.09.04-.17.1-.24.14-5.19,3.28-9.99,6.38-14.39,9.32-10.79,7.19-19.24,13.4-25.69,18.75-4.21,3.5-7.58,6.62-10.18,9.43-3.25,3.53-5.32,6.54-6.39,9.13-2.43,5.97.54,9.68,6.65,12.05l.29.71,16.17,41.86,3.81,9.86c.09.03.19.06.29.06.23-.26.67-.76,1.33-1.47.23-.26.5-.56.8-.87.66-.7,1.46-1.54,2.38-2.5l.59-.59c.39-.4.81-.83,1.26-1.26.21-.23.44-.46.67-.67.74-.74,1.54-1.51,2.38-2.31.47-.46.97-.93,1.48-1.4,2.64-2.48,5.74-5.28,9.32-8.32.5-.43,1-.84,1.51-1.27.5-.43,1.01-.86,1.54-1.28.54-.46,1.1-.91,1.67-1.37,1.61-1.31,3.31-2.65,5.08-4.02.59-.46,1.2-.93,1.81-1.4,18.75-14.3,45.68-31.35,80.62-44.87,0,0,67.23-25.96,103.41-29.3,1.07-.1,2.1-.17,3.11-.24,4.98-.29,9.22-.06,12.47.81"/>
        <path class="cls-2" d="M498.23,491.61c-.12.15-.19.22-.19.22l-.1-.28c.08.03.19.06.29.06Z"/>
        <path class="cls-2" d="M730.74,387.94l1.13,2.11c-.67-.3-1.41-.56-2.2-.77"/>
        <path class="cls-9" d="M498.04,491.83s.07-.07.19-.21c.23-.26.67-.76,1.33-1.47-.39.84-.76,1.7-1.11,2.57"/>
        <path class="cls-9" d="M731.87,390.06c-.64-.37-1.41-.56-2.2-.77-3.25-.87-7.49-1.1-12.47-.81,3.07.67,6.09,1.41,9.09,2.21,2.54.69,5.07,1.41,7.56,2.18"/>
        <path d="M474.89,437.57c11.75-17.26,30.28-31.02,48.73-40.41,4.14-2.14,8.93-4.21,13.19-6.03-4.1,2.17-8.66,4.6-12.6,7.07-6.78,4.09-13.34,8.97-19.38,14.05-5.99,5.22-11.59,10.82-16.53,17-2.87,3.58-5.63,7.41-7.81,11.43,0,0-5.59-3.11-5.59-3.11h0Z"/>
        <path class="cls-8" d="M698.51,290.38c-7.67,8.79-8.17,18.81-6.82,26.53-1.96.49-7.72,1.94-16.13,4.28-5.55-4.63-16.02-14.97-13.24-25.39,3.72-14.01,20.29-42.13,23.95-50.41,2.05-4.64,3.48-13.91,4.36-21.15-5.08,7.72-15.08,20.68-34.4,42.48-31.12,35.1-11.33,51.23,6.21,58.21-3.87,1.14-8.03,2.39-12.42,3.75-6.22,1.91-12.89,4.05-19.88,6.38-8.16-5.51-19.27-15.26-17.86-26.79,2.2-18,10.3-17.7-.22-47.92-1.46-4.18-2.89-7.98-4.27-11.43-.2-.54-.43-1.06-.63-1.58-.56-1.38-1.1-2.69-1.65-3.93-.21-.52-.44-1.03-.66-1.53-2-4.55-3.91-8.31-5.65-11.37-.22-.38-.42-.73-.63-1.09-.06-.11-.13-.24-.21-.35-.3-.51-.6-1.01-.9-1.48-.03-.04-.06-.1-.09-.14,6.4,12.67,10.76,30.61,1.71,51.05-15.69,35.45-21.72,55.49-15.17,73.72-3.76,1.56-7.52,3.15-11.26,4.82-10.4,4.59-20.6,9.49-30.13,14.72-5.06,2.74-9.96,5.59-14.59,8.51-.08.05-.16.1-.24.14-28.56-3.18-39.86-33.52-48.47-45.33-17.68-23.61-62.05-7.61-76.41-1.58,8.98-.92,27.14-1.73,42.43,3.85,21.3,7.78,27.53,21.37,36.73,36.09,6.05,9.7,21.49,14.28,31.33,16.29-10.79,7.2-19.23,13.4-25.68,18.75-4.21,3.5-7.58,6.63-10.18,9.44-10.17-15.56-37.79-26.81-50.69-14.56-20.84,19.27-35.57,25.77-45.62,26.9,14.93,4.31,29.07-5.96,53.05-13.71,20.95-6.77,32.44,4.45,36.88,10.51-2.43,5.97.53,9.67,6.65,12.05l.27.72c-68.59,33.7-66.62,25.22-77.86,21.82-22.42,4.1-35.43-.02-42.42-12.18-6.98-12.16-1.03-29.31-1.03-29.31,0,0-24.66-7.62-24.93-34.94s39.18-41.29,39.18-41.29c0,0-4.71-44.03,22.49-75.68s67.98-32.55,67.98-32.55c0,0,6.4-21.91,42.18-50.59,35.77-28.68,82.11-12.3,82.11-12.3,0,0,25.21-23.46,67.84-28.5,42.63-5.05,56.64,48.97,56.64,48.97,0,0,8.88,2.29,18.01,17.05,22.78,32.33-14.59,62.78-29.64,80.03Z"/>
        <path class="cls-3" d="M477.42,417.94c-3.25,3.52-5.33,6.54-6.39,9.13-4.44-6.06-15.92-17.28-36.88-10.51-23.98,7.75-38.12,18.02-53.05,13.71,10.06-1.13,24.79-7.63,45.62-26.9,12.9-12.24,40.53-.99,50.69,14.56Z"/>
        <path class="cls-4" d="M527.67,380.43c-5.2,3.28-9.99,6.39-14.39,9.32-9.84-2.01-25.27-6.59-31.33-16.29-9.2-14.73-15.44-28.31-36.73-36.09-15.29-5.58-33.44-4.77-42.43-3.85,14.36-6.03,58.73-22.03,76.41,1.58,8.61,11.81,19.91,42.14,48.47,45.33Z"/>
        <path d="M630.41,335.25c-1.61.96-4.19,1.64-5.95,2.28-13.73,4.69-27.43,9.76-40.84,15.29-5.89-15.83-1.17-32.99,4.36-48.22,3.61-10.18,8.25-20.06,12.35-30.04,5.84-15.23,4.28-32.6-3.18-47,0,0,.36-.22.36-.22,5.26,8.48,9.05,17.71,12.47,27.04,3.43,9.27,6.94,18.78,7.41,28.75.41,7.57-3.29,14.46-4.54,21.79-3.45,13.1,7.64,23.69,17.56,30.34h0ZM629.95,334.93c-9.82-6.63-20.61-17.07-17.24-30.05,1.22-7.32,4.89-14.2,4.46-21.76-.5-9.93-4.04-19.41-7.49-28.64-1.71-4.66-3.53-9.27-5.59-13.78-2.05-4.51-4.29-8.96-6.92-13.12l.36-.22c7.57,14.47,9.2,32.03,3.36,47.4-4.07,10-8.67,19.9-12.24,30.08-5.35,14.95-9.99,31.72-4.35,47.24,0,0-.59-.26-.59-.26,11.4-4.74,22.94-9.12,34.58-13.24,0,0,5.83-2.04,5.83-2.04,1.71-.59,4.01-1.47,5.83-1.61h0Z"/>
        <path class="cls-2" d="M662.31,295.79c-2.78,10.42,7.69,20.77,13.24,25.39-3.86,1.07-8.26,2.32-13.12,3.74-17.55-6.97-37.33-23.11-6.21-58.21,19.32-21.8,29.32-34.76,34.4-42.48-.87,7.23-2.31,16.5-4.36,21.15-3.66,8.28-20.23,36.39-23.95,50.41Z"/>
        <polygon points="402.98 334.02 398.23 335.54 402.57 333.03 402.98 334.02 402.98 334.02"/>
        <path d="M690.98,224.61c-3.35-.79,1.42-7.59,2.41-9.18.58-.91,1.22-1.77,1.83-2.65-.53.93-1.1,1.84-1.6,2.79-1.18,2.28-2.62,4.67-2.86,7.26-.02.27.08.68.21.72,0,0,.01,1.07.01,1.07h0Z"/>
      </g>
    </g>
  </g>
</svg>